<svg width="20" height="21" viewBox="0 0 20 21" fill="none" xmlns="http://www.w3.org/2000/svg">
<path d="M18.2501 12.65V16.9C18.2501 17.994 17.4631 18.936 16.3781 19.08C14.2911 19.357 12.1621 19.5 10.0001 19.5C7.83806 19.5 5.70906 19.357 3.62206 19.08C2.53706 18.936 1.75006 17.994 1.75006 16.9V12.65M18.2501 12.65C18.4875 12.4436 18.6775 12.1883 18.807 11.9016C18.9364 11.6149 19.0023 11.3036 19.0001 10.989V7.206C19.0001 6.125 18.2321 5.191 17.1631 5.031C16.0304 4.86142 14.892 4.73234 13.7501 4.644M18.2501 12.65C18.0561 12.815 17.8301 12.945 17.5771 13.03C15.1333 13.8408 12.5748 14.2528 10.0001 14.25C7.35206 14.25 4.80506 13.821 2.42306 13.03C2.17631 12.9479 1.94778 12.8189 1.75006 12.65M1.75006 12.65C1.5126 12.4436 1.32262 12.1883 1.19315 11.9016C1.06369 11.6149 0.997818 11.3036 1.00006 10.989V7.206C1.00006 6.125 1.76806 5.191 2.83706 5.031C3.96975 4.86142 5.10814 4.73233 6.25006 4.644M13.7501 4.644V3.75C13.7501 3.15326 13.513 2.58097 13.091 2.15901C12.6691 1.73705 12.0968 1.5 11.5001 1.5H8.50006C7.90332 1.5 7.33102 1.73705 6.90907 2.15901C6.48711 2.58097 6.25006 3.15326 6.25006 3.75V4.644M13.7501 4.644C11.2538 4.45108 8.74633 4.45108 6.25006 4.644M10.0001 11.25H10.0081V11.258H10.0001V11.25Z" stroke="#F0F2F5" stroke-opacity="0.5" stroke-width="1.5" stroke-linecap="round" stroke-linejoin="round"/>
</svg>
