<svg width="9" height="9" viewBox="0 0 9 9" fill="none" xmlns="http://www.w3.org/2000/svg">
<path d="M2.16667 0.5V1.5M6.83333 0.5V1.5M0.5 7.5V2.5C0.5 2.23478 0.605357 1.98043 0.792893 1.79289C0.98043 1.60536 1.23478 1.5 1.5 1.5H7.5C7.76522 1.5 8.01957 1.60536 8.20711 1.79289C8.39464 1.98043 8.5 2.23478 8.5 2.5V7.5M0.5 7.5C0.5 7.76522 0.605357 8.01957 0.792893 8.20711C0.98043 8.39464 1.23478 8.5 1.5 8.5H7.5C7.76522 8.5 8.01957 8.39464 8.20711 8.20711C8.39464 8.01957 8.5 7.76522 8.5 7.5M0.5 7.5V4.16667C0.5 3.90145 0.605357 3.6471 0.792893 3.45956C0.98043 3.27202 1.23478 3.16667 1.5 3.16667H7.5C7.76522 3.16667 8.01957 3.27202 8.20711 3.45956C8.39464 3.6471 8.5 3.90145 8.5 4.16667V7.5M4.5 4.83333H4.50356V4.83689H4.5V4.83333ZM4.5 5.83333H4.50356V5.83689H4.5V5.83333ZM4.5 6.83333H4.50356V6.83689H4.5V6.83333ZM3.5 5.83333H3.50356V5.83689H3.5V5.83333ZM3.5 6.83333H3.50356V6.83689H3.5V6.83333ZM2.5 5.83333H2.50356V5.83689H2.5V5.83333ZM2.5 6.83333H2.50356V6.83689H2.5V6.83333ZM5.5 4.83333H5.50356V4.83689H5.5V4.83333ZM5.5 5.83333H5.50356V5.83689H5.5V5.83333ZM5.5 6.83333H5.50356V6.83689H5.5V6.83333ZM6.5 4.83333H6.50356V4.83689H6.5V4.83333ZM6.5 5.83333H6.50356V5.83689H6.5V5.83333Z" stroke="#8C8D8F" stroke-linecap="round" stroke-linejoin="round"/>
</svg>
