<svg width="21" height="19" viewBox="0 0 21 19" fill="none" xmlns="http://www.w3.org/2000/svg">
<path d="M7.00817 7.15665C7.00817 7.25058 6.96967 7.34066 6.90115 7.40708C6.83263 7.4735 6.73969 7.51082 6.64278 7.51082C6.54588 7.51082 6.45294 7.4735 6.38442 7.40708C6.3159 7.34066 6.2774 7.25058 6.2774 7.15665C6.2774 7.06272 6.3159 6.97263 6.38442 6.90621C6.45294 6.8398 6.54588 6.80248 6.64278 6.80248C6.73969 6.80248 6.83263 6.8398 6.90115 6.90621C6.96967 6.97263 7.00817 7.06272 7.00817 7.15665ZM7.00817 7.15665H6.64278M10.662 7.15665C10.662 7.25058 10.6235 7.34066 10.555 7.40708C10.4865 7.4735 10.3935 7.51082 10.2966 7.51082C10.1997 7.51082 10.1068 7.4735 10.0383 7.40708C9.96974 7.34066 9.93125 7.25058 9.93125 7.15665C9.93125 7.06272 9.96974 6.97263 10.0383 6.90621C10.1068 6.8398 10.1997 6.80248 10.2966 6.80248C10.3935 6.80248 10.4865 6.8398 10.555 6.90621C10.6235 6.97263 10.662 7.06272 10.662 7.15665ZM10.662 7.15665H10.2966M14.3159 7.15665C14.3159 7.25058 14.2774 7.34066 14.2088 7.40708C14.1403 7.4735 14.0474 7.51082 13.9505 7.51082C13.8536 7.51082 13.7606 7.4735 13.6921 7.40708C13.6236 7.34066 13.5851 7.25058 13.5851 7.15665C13.5851 7.06272 13.6236 6.97263 13.6921 6.90621C13.7606 6.8398 13.8536 6.80248 13.9505 6.80248C14.0474 6.80248 14.1403 6.8398 14.2088 6.90621C14.2774 6.97263 14.3159 7.06272 14.3159 7.15665ZM14.3159 7.15665H13.9505M0.796631 9.99943C0.796631 11.5105 1.89084 12.8271 3.43422 13.0471C4.49335 13.1983 5.56319 13.3144 6.64278 13.3956V17.7816L10.7195 13.831C10.9214 13.6362 11.1927 13.5239 11.4776 13.5175C13.3791 13.4721 15.2761 13.3151 17.1581 13.0471C18.7024 12.8271 19.7966 11.5115 19.7966 9.99848V4.31482C19.7966 2.80182 18.7024 1.4862 17.159 1.26615C14.8868 0.942879 12.5932 0.780948 10.2966 0.781649C7.96596 0.781649 5.67427 0.946927 3.43422 1.26615C1.89084 1.4862 0.796631 2.80276 0.796631 4.31482V9.99848V9.99943Z" stroke="white" stroke-linecap="round" stroke-linejoin="round"/>
</svg>
