<svg width="42" height="42" viewBox="0 0 42 42" fill="none" xmlns="http://www.w3.org/2000/svg">
<path d="M41.5902 3.0581V38.5321C41.5902 39.3432 41.268 40.121 40.6945 40.6945C40.121 41.268 39.3432 41.5902 38.5321 41.5902H3.0581C2.24704 41.5902 1.4692 41.268 0.895698 40.6945C0.322192 40.121 0 39.3432 0 38.5321L0 3.0581C0 2.24704 0.322192 1.4692 0.895698 0.895698C1.4692 0.322192 2.24704 0 3.0581 0L38.5321 0C39.3432 0 40.121 0.322192 40.6945 0.895698C41.268 1.4692 41.5902 2.24704 41.5902 3.0581ZM12.2324 15.9021H6.11621V35.474H12.2324V15.9021ZM12.7829 9.17431C12.7861 8.71167 12.6982 8.25292 12.5241 7.82427C12.35 7.39561 12.0932 7.00544 11.7684 6.67603C11.4435 6.34662 11.0569 6.08443 10.6307 5.90442C10.2045 5.72441 9.74705 5.63011 9.2844 5.62691H9.17431C8.23348 5.62691 7.33119 6.00065 6.66592 6.66592C6.00065 7.33119 5.62691 8.23348 5.62691 9.17431C5.62691 10.1151 6.00065 11.0174 6.66592 11.6827C7.33119 12.348 8.23348 12.7217 9.17431 12.7217C9.63699 12.7331 10.0974 12.6532 10.5292 12.4866C10.9609 12.32 11.3557 12.0699 11.6908 11.7507C12.0259 11.4315 12.2948 11.0494 12.4822 10.6262C12.6696 10.203 12.7718 9.74708 12.7829 9.2844V9.17431ZM35.474 23.5841C35.474 17.7003 31.7309 15.4128 28.0122 15.4128C26.7947 15.3519 25.5824 15.6112 24.4963 16.165C23.4103 16.7187 22.4884 17.5476 21.8226 18.5688H21.6514V15.9021H15.9021V35.474H22.0184V25.0642C21.9299 23.9981 22.2658 22.9401 22.9529 22.1202C23.64 21.3002 24.6229 20.7845 25.6881 20.685H25.9205C27.8654 20.685 29.3089 21.9083 29.3089 24.9908V35.474H35.4251L35.474 23.5841Z" fill="white"/>
</svg>
