<svg width="22" height="22" viewBox="0 0 22 22" fill="none" xmlns="http://www.w3.org/2000/svg">
<path d="M21 7.71535V8.65934C21 9.08262 20.8872 9.498 20.6736 9.86141C20.46 10.2248 20.1535 10.5227 19.7867 10.7234L13.1426 14.3577M1 7.71535V8.65934C0.999984 9.08262 1.11277 9.498 1.3264 9.86141C1.54002 10.2248 1.84651 10.5227 2.21333 10.7234L8.85744 14.3577M8.85744 14.3577L9.90564 13.7846C10.242 13.6006 10.618 13.5042 11 13.5042C11.382 13.5042 11.758 13.6006 12.0944 13.7846L13.1436 14.3577L17.9231 16.9729M8.85744 14.3577L4.07692 16.9729M21 18.6557C21 19.2774 20.7569 19.8737 20.3241 20.3134C19.8913 20.753 19.3043 21 18.6923 21H3.30769C2.69565 21 2.10868 20.753 1.67591 20.3134C1.24313 19.8737 1 19.2774 1 18.6557V7.55281C0.999984 7.12954 1.11277 6.71415 1.3264 6.35075C1.54002 5.98734 1.84651 5.68947 2.21333 5.48874L9.90564 1.28037C10.242 1.09634 10.618 1 11 1C11.382 1 11.758 1.09634 12.0944 1.28037L19.7867 5.48874C20.1533 5.68938 20.4597 5.98709 20.6733 6.3503C20.887 6.71351 20.9998 7.12867 21 7.55177V18.6557Z" stroke="white" stroke-width="1.5" stroke-linecap="round" stroke-linejoin="round"/>
</svg>
