<svg width="14" height="22" viewBox="0 0 14 22" fill="none" xmlns="http://www.w3.org/2000/svg">
<path d="M5.5 1H3.25C2.65326 1 2.08097 1.22576 1.65901 1.62763C1.23705 2.02949 1 2.57454 1 3.14286V18.8571C1 19.4255 1.23705 19.9705 1.65901 20.3724C2.08097 20.7742 2.65326 21 3.25 21H10.75C11.3467 21 11.919 20.7742 12.341 20.3724C12.7629 19.9705 13 19.4255 13 18.8571V3.14286C13 2.57454 12.7629 2.02949 12.341 1.62763C11.919 1.22576 11.3467 1 10.75 1H8.5M5.5 1V2.42857H8.5V1M5.5 1H8.5M5.5 18.8571H8.5" stroke="white" stroke-width="1.5" stroke-linecap="round" stroke-linejoin="round"/>
</svg>
