<svg width="20" height="22" viewBox="0 0 20 22" fill="none" xmlns="http://www.w3.org/2000/svg">
<path d="M4.72 12.579C4.48 12.609 4.24 12.641 4 12.675M4.72 12.579C8.22626 12.1391 11.7737 12.1391 15.28 12.579M4.72 12.579L4.34 16.75M15.28 12.579C15.52 12.609 15.76 12.641 16 12.675M15.28 12.579L15.66 16.75L15.889 19.273C15.9032 19.4287 15.8848 19.5856 15.8349 19.7337C15.7851 19.8819 15.7049 20.018 15.5995 20.1334C15.4942 20.2489 15.3659 20.3411 15.2229 20.4042C15.0799 20.4673 14.9253 20.4999 14.769 20.5H5.231C4.569 20.5 4.051 19.932 4.111 19.273L4.34 16.75M4.34 16.75H3.25C2.65326 16.75 2.08097 16.5129 1.65901 16.091C1.23705 15.669 1 15.0967 1 14.5V8.206C1 7.125 1.768 6.191 2.837 6.031C3.47295 5.93587 4.11074 5.85352 4.75 5.784M15.658 16.75H16.749C17.0446 16.7501 17.3372 16.692 17.6103 16.579C17.8834 16.466 18.1316 16.3003 18.3406 16.0913C18.5497 15.8824 18.7155 15.6343 18.8286 15.3613C18.9418 15.0882 19 14.7956 19 14.5V8.206C19 7.125 18.232 6.191 17.163 6.031C16.5271 5.93588 15.8893 5.85353 15.25 5.784M15.25 5.784C11.7603 5.4043 8.2397 5.4043 4.75 5.784M15.25 5.784V2.125C15.25 1.504 14.746 1 14.125 1H5.875C5.254 1 4.75 1.504 4.75 2.125V5.784M16 9.25H16.008V9.258H16V9.25ZM13 9.25H13.008V9.258H13V9.25Z" stroke="white" stroke-width="1.2" stroke-linecap="round" stroke-linejoin="round"/>
</svg>
