<svg width="20" height="19" viewBox="0 0 20 19" fill="none" xmlns="http://www.w3.org/2000/svg">
<path d="M4.75 5.25L7.75 7.5L4.75 9.75M9.25 9.75H12.25M3.25 18H16.75C17.3467 18 17.919 17.7629 18.341 17.341C18.7629 16.919 19 16.3467 19 15.75V3.75C19 3.15326 18.7629 2.58097 18.341 2.15901C17.919 1.73705 17.3467 1.5 16.75 1.5H3.25C2.65326 1.5 2.08097 1.73705 1.65901 2.15901C1.23705 2.58097 1 3.15326 1 3.75V15.75C1 16.3467 1.23705 16.919 1.65901 17.341C2.08097 17.7629 2.65326 18 3.25 18Z" stroke="#F0F2F5" stroke-opacity="0.5" stroke-width="1.5" stroke-linecap="round" stroke-linejoin="round"/>
</svg>
