<svg width="42" height="42" viewBox="0 0 42 42" fill="none" xmlns="http://www.w3.org/2000/svg">
<path d="M0 41.5902L2.93527 30.9205C1.13172 27.7905 0.184582 24.2405 0.189214 20.628C0.168327 9.24445 9.41278 0 20.7742 0C26.2885 0 31.466 2.13787 35.3646 6.03765C37.2862 7.94926 38.8093 10.2232 39.8457 12.7277C40.8821 15.2322 41.4111 17.9175 41.4022 20.628C41.4022 31.9894 32.1578 41.2339 20.7951 41.2339C17.3364 41.2339 13.9613 40.3738 10.9425 38.7188L0 41.5902ZM11.4253 35.0083L12.0544 35.3855C14.6948 36.9479 17.7062 37.7731 20.7742 37.7752C30.2079 37.7752 37.9018 30.0826 37.9018 20.6477C37.9018 16.0783 36.1202 11.7608 32.8913 8.53306C31.3035 6.93627 29.4153 5.6695 27.3357 4.80577C25.2561 3.94203 23.0261 3.49841 20.7742 3.50046C11.3197 3.50169 3.62824 11.1943 3.62824 20.6292C3.62824 23.8569 4.53008 27.0232 6.24897 29.7484L6.64706 30.3983L4.90728 36.7284L11.4266 35.0095L11.4253 35.0083Z" fill="white"/>
<path fill-rule="evenodd" clip-rule="evenodd" d="M15.6384 11.9917C15.2612 11.1317 14.8422 11.1108 14.4859 11.1108C14.1714 11.0899 13.8347 11.0899 13.4784 11.0899C13.1442 11.0899 12.5778 11.2152 12.0962 11.7399C11.6133 12.2633 10.2937 13.5005 10.2937 16.0365C10.2937 18.5737 12.138 21.0261 12.3898 21.3615C12.6405 21.6969 15.9529 27.0625 21.1944 29.139C25.5537 30.8578 26.4347 30.5224 27.3783 30.4168C28.3207 30.3123 30.418 29.1807 30.8578 27.9643C31.2768 26.7701 31.2768 25.722 31.1515 25.5119C31.0262 25.3031 30.6686 25.1765 30.1661 24.9038C29.6415 24.6531 27.1264 23.395 26.6448 23.2266C26.1619 23.0595 25.8265 22.976 25.4911 23.4785C25.1556 24.0031 24.1702 25.1556 23.8569 25.4911C23.5621 25.8265 23.2487 25.8683 22.745 25.6164C22.2216 25.3657 20.5653 24.8202 18.5946 23.0595C17.0637 21.6957 16.0365 19.9989 15.722 19.4964C15.4295 18.9718 15.6802 18.699 15.9529 18.4471C16.1839 18.2174 16.4776 17.8402 16.7295 17.5465C16.9801 17.2516 17.0637 17.0219 17.2529 16.6865C17.42 16.351 17.3364 16.0365 17.2111 15.7859C17.0845 15.5549 16.1004 13.0177 15.6384 11.9905V11.9917Z" fill="white"/>
</svg>
