<svg width="13" height="16" viewBox="0 0 13 16" fill="none" xmlns="http://www.w3.org/2000/svg">
<path d="M12.9223 13.3302C12.9276 14.3065 12.1403 15.1014 11.1646 15.1067C11.0921 15.1073 11.019 15.1032 10.947 15.0944C10.0415 14.9605 9.37821 14.1725 9.40044 13.2577V2.73926C9.37879 1.82324 10.0439 1.03532 10.9499 0.902537C11.9192 0.789058 12.7972 1.4828 12.9106 2.45205C12.9188 2.52341 12.9229 2.59477 12.9223 2.66672V13.3302Z" fill="#F9AB00"/>
<path d="M1.83887 11.5871C2.81162 11.5871 3.60012 12.3756 3.60012 13.3484C3.60012 14.3212 2.81162 15.1097 1.83887 15.1097C0.866107 15.1097 0.0776062 14.3212 0.0776062 13.3484C0.0776062 12.3756 0.866107 11.5871 1.83887 11.5871ZM6.47277 6.24955C5.49534 6.30336 4.73725 7.12287 4.76006 8.10147V12.8319C4.76006 14.1159 5.32512 14.895 6.15281 15.0611C7.10802 15.2547 8.03866 14.6376 8.23228 13.6824C8.25626 13.5654 8.26796 13.4467 8.26737 13.3273V8.01958C8.26913 7.04331 7.47946 6.25072 6.50319 6.24896C6.49325 6.24896 6.48272 6.24896 6.47277 6.24955Z" fill="#E37400"/>
</svg>
