<svg width="20" height="26" viewBox="0 0 20 26" fill="none" xmlns="http://www.w3.org/2000/svg">
<path d="M18.7299 15.3966V12.2474C18.7299 10.0111 16.9438 8.19831 14.7406 8.19831H12.9677C12.2333 8.19831 11.6379 7.59403 11.6379 6.84862V5.04905C11.6379 2.81282 9.85188 1 7.6487 1H5.43246M6.31896 15.3966L9.86493 18.9958M9.86493 18.9958L13.4109 15.3966M9.86493 18.9958L9.86493 11.7975M8.09194 1H2.32974C1.59534 1 1 1.60427 1 2.34968V23.0448C1 23.7902 1.59534 24.3945 2.32974 24.3945H17.4001C18.1345 24.3945 18.7299 23.7902 18.7299 23.0448V11.7975C18.7299 5.83419 13.9671 1 8.09194 1Z" stroke="white" stroke-width="1.87156" stroke-linecap="round" stroke-linejoin="round"/>
</svg>
