<svg width="42" height="41" viewBox="0 0 42 41" fill="white" xmlns="http://www.w3.org/2000/svg">
<path fill-rule="evenodd" clip-rule="evenodd" d="M20.7951 0C9.30581 0 0 9.30581 0 20.7951C0 29.9969 5.9526 37.7691 14.2187 40.5245C15.2584 40.7064 15.6483 40.0826 15.6483 39.5367C15.6483 39.0428 15.6223 37.4052 15.6223 35.6636C10.3976 36.6254 9.04587 34.3899 8.62997 33.2202C8.39602 32.6223 7.38226 30.7768 6.49847 30.2829C5.77064 29.893 4.73089 28.9312 6.47248 28.9052C8.11009 28.8792 9.27982 30.4128 9.66973 31.0367C11.5413 34.182 14.5306 33.2982 15.7263 32.7523C15.9083 31.4006 16.4541 30.4908 17.052 29.9709C12.4251 29.4511 7.59021 27.6575 7.59021 19.7034C7.59021 17.4419 8.39603 15.5703 9.72171 14.1147C9.51376 13.5948 8.78593 11.4633 9.92966 8.60398C9.92966 8.60398 11.6713 8.0581 15.6483 10.7355C17.3119 10.2676 19.0795 10.0336 20.8471 10.0336C22.6147 10.0336 24.3823 10.2676 26.0459 10.7355C30.0229 8.03211 31.7645 8.60398 31.7645 8.60398C32.9083 11.4633 32.1804 13.5948 31.9725 14.1147C33.2982 15.5703 34.104 17.4159 34.104 19.7034C34.104 27.6835 29.2431 29.4511 24.6162 29.9709C25.37 30.6208 26.0199 31.8685 26.0199 33.818C26.0199 36.5994 25.9939 38.8349 25.9939 39.5367C25.9939 40.0826 26.3838 40.7324 27.4235 40.5245C31.5518 39.1308 35.139 36.4777 37.6803 32.9385C40.2216 29.3993 41.5891 25.1522 41.5902 20.7951C41.5902 9.30581 32.2844 0 20.7951 0Z" fill="white"/>
</svg>
