<svg width="224" height="253" viewBox="0 0 224 253" fill="none" xmlns="http://www.w3.org/2000/svg">
<path d="M65.9827 208.611L65.9736 208.603C65.4112 208.127 63.7052 206.678 63.1826 204.222C62.593 201.451 63.8454 199.346 64.4577 198.457C64.8113 197.933 65.442 197.004 66.7947 195.022L65.9827 208.611ZM65.9827 208.611L65.9919 208.619M65.9827 208.611L65.9919 208.619M65.9919 208.619C69.9502 211.945 75.1708 215.572 78.9471 217.507C88.8592 222.593 99.7714 225.427 110.904 225.807M65.9919 208.619L110.904 225.807M81.8296 190.725L82.104 190.94C90.9966 197.911 101.193 201.824 111.309 202.25C126.018 202.001 133.755 195.555 135.051 188.589L135.052 188.586C135.808 184.535 134.714 180.696 131.364 177.011C127.864 173.161 121.856 169.494 113.082 166.74L81.8296 190.725ZM81.8296 190.725L81.759 190.682M81.8296 190.725L81.759 190.682M81.759 190.682C81.733 190.661 81.703 190.637 81.6677 190.609L81.6423 190.589C81.5709 190.532 81.4851 190.464 81.3904 190.389L81.3647 190.369C81.1895 190.231 81.0801 190.145 80.9973 190.08C80.9097 190.011 80.8467 189.963 80.779 189.912C80.7389 189.881 80.6769 189.832 80.6097 189.782C80.5826 189.762 80.5574 189.743 80.5351 189.727C80.5207 189.717 80.5075 189.707 80.4956 189.698C79.1717 188.693 77.2251 187.786 74.8776 188C72.3324 188.231 70.3977 189.683 69.2449 191.424C69.1169 191.61 68.9627 191.837 68.5838 192.394C68.2328 192.91 67.6892 193.709 66.795 195.022L81.759 190.682ZM88.4 156.804L88.3957 156.802C81.3622 152.672 75.823 147.682 72.1809 141.688C68.4991 135.629 66.9539 128.865 67.4531 121.604L67.4549 121.577L67.4569 121.551C69.0677 100.783 88.1089 86.5086 110.237 86.4118L110.259 86.4117L110.28 86.4118C120.092 86.4383 129.799 88.4417 138.821 92.3021C142.116 93.6953 147.918 96.8283 150.269 98.5633C151.479 99.4558 152.943 100.956 153.501 103.233C154.088 105.622 153.407 107.735 152.495 109.218C152.12 109.836 151.532 110.779 150.369 112.638L149.884 113.415L149.863 113.432C149.363 114.231 149.08 114.682 148.891 114.982C148.662 115.347 148.573 115.489 148.405 115.762L148.363 115.831L148.319 115.899C147.489 117.173 145.819 118.997 143.012 119.362C140.515 119.686 138.56 118.631 137.585 118.008L137.528 117.972L137.471 117.934C129.399 112.512 120.492 109.763 110.549 109.542L88.4 156.804ZM88.4 156.804C90.2462 157.886 95.1294 159.954 99.7487 161.804M88.4 156.804L99.7487 161.804M110.904 225.807C118.606 226.325 128.015 224.687 135.185 221.618L110.904 225.807ZM99.7487 161.804C104.55 163.727 109.905 165.746 113.081 166.74L99.7487 161.804ZM13.4157 229.653L6.27824 72.252H7.1508L6.26063 67.0355H56.7986H62.5782L62.7944 61.2599C63.9751 29.7172 86.2786 6 112.005 6C137.731 6 160.034 29.7172 161.215 61.2599L161.431 67.0355H167.211H217.921L209.88 230.183L209.873 230.331V230.479C209.873 230.536 209.869 230.632 209.848 230.96L209.837 231.134L209.837 231.16L209.814 231.356V231.588C208.98 240.158 202.123 246.743 194.061 247H28.7429L28.3693 246.986C20.6883 246.693 14.3932 240.378 13.5107 231.378L13.4806 231.071V231.038L13.457 230.773C13.4343 230.518 13.4218 230.227 13.4218 229.925V229.789L13.4157 229.653ZM152.11 67.0355H158.308L158.107 60.8415C157.204 32.9221 137.834 8.76769 112.005 8.76769C86.1798 8.76769 66.7985 32.9207 65.902 60.8429L65.7032 67.0355H71.8989H152.11ZM148.851 160.188C140.804 152.249 128.236 146.096 111.398 140.664L135.188 221.617C148.521 215.918 157.284 204.378 159.01 190.072C160.416 178.47 157.293 168.517 148.851 160.188Z" stroke="white" stroke-width="12"/>
</svg>
