<svg width="277" height="42" viewBox="0 0 277 42" fill="none" xmlns="http://www.w3.org/2000/svg">
<path fill-rule="evenodd" clip-rule="evenodd" d="M20.0894 8.03992C20.6755 8.2034 21.0211 8.82184 20.8612 9.42126L14.2612 34.1707C14.1014 34.7702 13.4967 35.1236 12.9106 34.9601C12.3245 34.7966 11.9789 34.1782 12.1388 33.5787L18.7388 8.82926C18.8986 8.22984 19.5033 7.87645 20.0894 8.03992ZM23.4222 12.8297C23.8518 12.3904 24.5482 12.3904 24.9778 12.8297L32.6778 20.7045C33.1074 21.1439 33.1074 21.8561 32.6778 22.2955L24.9778 30.1703C24.5482 30.6096 23.8518 30.6096 23.4222 30.1703C22.9926 29.731 22.9926 29.0187 23.4222 28.5794L30.3444 21.5L23.4222 14.4206C22.9926 13.9813 22.9926 13.269 23.4222 12.8297ZM9.57782 12.8297C10.0074 13.269 10.0074 13.9813 9.57782 14.4206L2.65563 21.5L9.57782 28.5794C10.0074 29.0187 10.0074 29.731 9.57782 30.1703C9.14824 30.6096 8.45176 30.6096 8.02218 30.1703L0.322183 22.2955C-0.107394 21.8561 -0.107394 21.1439 0.322183 20.7045L8.02218 12.8297C8.45176 12.3904 9.14824 12.3904 9.57782 12.8297Z" fill="#454657"/>
<path d="M53.735 33.32C51.9857 33.32 50.6417 32.8933 49.703 32.04C48.7857 31.1867 48.359 30.0667 48.423 28.68H50.951C50.9937 29.384 51.2817 29.96 51.815 30.408C52.3697 30.8347 53.1377 31.048 54.119 31.048H55.687C56.8177 31.048 57.7137 30.792 58.375 30.28C59.0577 29.768 59.463 29.096 59.591 28.264C59.719 27.4747 59.559 26.824 59.111 26.312C58.6843 25.8 58.0123 25.4693 57.095 25.32L54.503 24.904C52.8817 24.648 51.7083 24.136 50.983 23.368C50.2577 22.5787 50.0123 21.4693 50.247 20.04C50.4817 18.4827 51.175 17.2667 52.327 16.392C53.479 15.5173 55.015 15.08 56.935 15.08H58.183C59.847 15.08 61.1163 15.4853 61.991 16.296C62.887 17.0853 63.335 18.152 63.335 19.496H60.807C60.7643 18.856 60.487 18.344 59.975 17.96C59.4843 17.5547 58.7697 17.352 57.831 17.352H56.583C55.4523 17.352 54.567 17.5867 53.927 18.056C53.3083 18.5253 52.935 19.1867 52.807 20.04C52.679 20.8293 52.807 21.4267 53.191 21.832C53.575 22.2373 54.247 22.5147 55.207 22.664L57.767 23.08C59.4737 23.336 60.6897 23.88 61.415 24.712C62.1403 25.5227 62.3963 26.6747 62.183 28.168C61.9057 29.7467 61.1803 31.0053 60.007 31.944C58.855 32.8613 57.287 33.32 55.303 33.32H53.735ZM68.4745 38.76L68.8585 36.456H74.2025C75.1838 36.456 75.9518 36.2213 76.5065 35.752C77.0825 35.2827 77.4452 34.568 77.5945 33.608L77.9465 31.272L78.4905 28.136H77.8505L78.6825 27.208C78.4692 28.616 77.8612 29.7253 76.8585 30.536C75.8772 31.3253 74.6398 31.72 73.1465 31.72C71.3972 31.72 70.0852 31.176 69.2105 30.088C68.3358 28.9787 68.0478 27.4853 68.3465 25.608L69.9465 15.4H72.5065L70.9385 25.32C70.7038 26.6427 70.8852 27.688 71.4825 28.456C72.0798 29.2027 72.9758 29.576 74.1705 29.576C75.4292 29.576 76.4852 29.1813 77.3385 28.392C78.2132 27.6027 78.7572 26.504 78.9705 25.096L80.4745 15.4H83.0345L80.1225 33.608C79.8878 35.2293 79.2052 36.488 78.0745 37.384C76.9652 38.3013 75.5358 38.76 73.7865 38.76H68.4745ZM86.542 33L90.254 9.64H92.782L90.702 22.792H93.998L100.398 15.4H103.374L96.11 23.912L100.718 33H97.806L93.806 25H90.35L89.07 33H86.542ZM106.21 33L108.994 15.4H111.49L110.978 18.504H111.682L110.434 20.584C110.711 18.792 111.34 17.4267 112.322 16.488C113.324 15.5493 114.636 15.08 116.258 15.08C118.114 15.08 119.49 15.6667 120.385 16.84C121.303 17.992 121.612 19.5493 121.314 21.512L121.122 22.568H118.53L118.69 21.704C118.924 20.2747 118.743 19.176 118.146 18.408C117.57 17.6187 116.642 17.224 115.362 17.224C114.082 17.224 113.015 17.6187 112.161 18.408C111.308 19.1973 110.764 20.296 110.53 21.704L108.77 33H106.21ZM124.821 33L127.605 15.4H130.133L129.621 18.664H130.261L129.397 19.592C129.632 18.184 130.24 17.0853 131.221 16.296C132.224 15.4853 133.472 15.08 134.965 15.08C136.714 15.08 138.026 15.6347 138.901 16.744C139.776 17.832 140.064 19.3147 139.765 21.192L137.877 33H135.349L137.173 21.48C137.386 20.136 137.194 19.0907 136.597 18.344C136.021 17.5973 135.125 17.224 133.909 17.224C132.672 17.224 131.626 17.6187 130.773 18.408C129.92 19.1973 129.376 20.296 129.141 21.704L127.349 33H124.821ZM143.881 33L144.297 30.504L156.201 17.704H146.569L146.953 15.4H159.529L159.145 17.928L147.081 30.696H157.481L157.129 33H143.881ZM162.3 33L165.084 15.4H167.324L167.004 17.576H167.452L167.004 18.28C167.175 17.2987 167.559 16.52 168.156 15.944C168.775 15.368 169.543 15.08 170.46 15.08C171.42 15.08 172.113 15.4213 172.54 16.104C172.967 16.7867 173.105 17.7467 172.956 18.984L172.508 17.576H173.564L172.988 18.28C173.137 17.2987 173.521 16.52 174.14 15.944C174.78 15.368 175.559 15.08 176.476 15.08C177.564 15.08 178.343 15.4853 178.812 16.296C179.303 17.1067 179.431 18.184 179.196 19.528L177.084 33H174.716L176.828 19.528C176.935 18.76 176.86 18.1627 176.604 17.736C176.348 17.288 175.911 17.064 175.292 17.064C174.673 17.064 174.14 17.288 173.692 17.736C173.265 18.1627 172.999 18.76 172.892 19.528L170.748 33H168.636L170.748 19.528C170.897 18.7387 170.823 18.1307 170.524 17.704C170.247 17.2773 169.799 17.064 169.18 17.064C168.561 17.064 168.039 17.2773 167.612 17.704C167.207 18.1307 166.94 18.7387 166.812 19.528L164.668 33H162.3ZM182.384 33L185.168 15.4H187.696L187.184 18.664H187.824L186.96 19.592C187.194 18.184 187.802 17.0853 188.784 16.296C189.786 15.4853 191.034 15.08 192.528 15.08C194.277 15.08 195.589 15.6347 196.464 16.744C197.338 17.832 197.626 19.3147 197.328 21.192L195.44 33H192.912L194.736 21.48C194.949 20.136 194.757 19.0907 194.16 18.344C193.584 17.5973 192.688 17.224 191.472 17.224C190.234 17.224 189.189 17.6187 188.336 18.408C187.482 19.1973 186.938 20.296 186.704 21.704L184.911 33H182.384ZM208.003 33.32C207.214 33.32 206.627 33.096 206.243 32.648C205.859 32.1787 205.72 31.56 205.827 30.792C205.955 29.9813 206.286 29.3413 206.819 28.872C207.374 28.4027 208.046 28.168 208.835 28.168C209.624 28.168 210.211 28.4027 210.595 28.872C210.979 29.3413 211.107 29.9813 210.979 30.792C210.851 31.56 210.52 32.1787 209.987 32.648C209.454 33.096 208.792 33.32 208.003 33.32ZM226.359 33.32C224.609 33.32 223.297 32.7333 222.423 31.56C221.569 30.3867 221.303 28.808 221.623 26.824L222.455 21.608C222.668 20.264 223.084 19.112 223.703 18.152C224.343 17.1707 225.132 16.4133 226.071 15.88C227.031 15.3467 228.097 15.08 229.271 15.08C230.743 15.08 231.863 15.4853 232.631 16.296C233.399 17.1067 233.676 18.1947 233.463 19.56L232.951 18.504H233.559L234.135 14.664L234.967 9.64H237.495L233.783 33H231.255L231.735 29.896H231.095L231.991 28.84C231.777 30.2267 231.148 31.3253 230.103 32.136C229.079 32.9253 227.831 33.32 226.359 33.32ZM227.51 31.112C228.769 31.112 229.815 30.728 230.647 29.96C231.5 29.1707 232.033 28.0827 232.247 26.696L233.015 21.704C233.249 20.3173 233.068 19.24 232.471 18.472C231.873 17.6827 230.945 17.288 229.687 17.288C228.407 17.288 227.351 17.672 226.519 18.44C225.708 19.208 225.185 20.296 224.951 21.704L224.183 26.696C223.969 28.104 224.151 29.192 224.727 29.96C225.303 30.728 226.231 31.112 227.51 31.112ZM246.378 33.32C245.013 33.32 243.882 33.0533 242.986 32.52C242.09 31.9653 241.45 31.1867 241.066 30.184C240.682 29.1813 240.597 28.0187 240.81 26.696L241.578 21.704C241.813 20.36 242.271 19.1973 242.954 18.216C243.658 17.2133 244.543 16.4453 245.61 15.912C246.698 15.3573 247.925 15.08 249.29 15.08C250.655 15.08 251.786 15.3573 252.682 15.912C253.599 16.4453 254.25 17.2133 254.634 18.216C255.018 19.1973 255.093 20.36 254.858 21.704L254.378 24.808H243.594L243.306 26.696C243.093 28.1253 243.274 29.2347 243.85 30.024C244.426 30.792 245.386 31.176 246.73 31.176C247.861 31.176 248.799 30.952 249.546 30.504C250.314 30.056 250.858 29.4053 251.178 28.552H253.706C253.407 29.5333 252.906 30.3867 252.202 31.112C251.519 31.816 250.677 32.36 249.674 32.744C248.693 33.128 247.594 33.32 246.378 33.32ZM252.17 23.112L252.362 21.704C252.597 20.2747 252.426 19.176 251.85 18.408C251.274 17.6187 250.314 17.224 248.97 17.224C247.605 17.224 246.506 17.6187 245.674 18.408C244.842 19.176 244.309 20.2747 244.074 21.704L243.914 22.824H252.458L252.17 23.112ZM263.934 33L260.862 15.4H263.39L265.406 27.592C265.512 28.2533 265.608 28.9147 265.694 29.576C265.779 30.216 265.843 30.7173 265.885 31.08C266.056 30.7173 266.28 30.216 266.558 29.576C266.856 28.9147 267.176 28.2533 267.518 27.592L273.278 15.4H275.966L267.326 33H263.934Z" fill="#454657"/>
</svg>
